<?xml version="1.0" encoding="UTF-8"?>
<svg width="100pt" height="100pt" version="1.1" viewBox="0 0 100 100" xmlns="http://www.w3.org/2000/svg">
 <path d="m50 12.5c0-3.4531 2.7969-6.25 6.25-6.25h37.5c3.4531 0 6.25 2.7969 6.25 6.25s-2.7969 6.25-6.25 6.25h-37.5c-3.4531 0-6.25-2.7969-6.25-6.25zm43.75 18.75h-37.5c-3.4531 0-6.25 2.7969-6.25 6.25s2.7969 6.25 6.25 6.25h37.5c3.4531 0 6.25-2.7969 6.25-6.25s-2.7969-6.25-6.25-6.25zm-87.5 12.5h25c3.4531 0 6.25-2.8008 6.25-6.25v-25c0-3.4492-2.7969-6.25-6.25-6.25h-25c-3.4531 0-6.25 2.8008-6.25 6.25v25c0 3.4492 2.7969 6.25 6.25 6.25zm37.5 37.5h-37.5c-3.4531 0-6.25 2.7969-6.25 6.25s2.7969 6.25 6.25 6.25h37.5c3.4531 0 6.25-2.7969 6.25-6.25s-2.7969-6.25-6.25-6.25zm0-25h-37.5c-3.4531 0-6.25 2.7969-6.25 6.25s2.7969 6.25 6.25 6.25h37.5c3.4531 0 6.25-2.7969 6.25-6.25s-2.7969-6.25-6.25-6.25zm50 0h-25c-3.4531 0-6.25 2.8008-6.25 6.25v25c0 3.4531 2.7969 6.25 6.25 6.25h25c3.4531 0 6.25-2.7969 6.25-6.25v-25c0-3.4492-2.7969-6.25-6.25-6.25z"/>
<style>
    @media (prefers-color-scheme:dark){:root{filter:invert(100%)}}
  </style>
</svg>


